<svg xmlns="http://www.w3.org/2000/svg" viewBox="34 54 188 152" role="img" aria-label="DirForge folder list icon">
  <defs>
    <linearGradient id="folderGrad" x1="0" y1="0" x2="1" y2="1">
      <stop offset="0" stop-color="#1E90FF"/>
      <stop offset="1" stop-color="#00BFA6"/>
    </linearGradient>
    <linearGradient id="starGrad" x1="0" y1="0" x2="0" y2="1">
      <stop offset="0" stop-color="#FFB300"/>
      <stop offset="1" stop-color="#FF6F00"/>
    </linearGradient>
  </defs>

  <!-- Folder -->
  <path d="M40 76c0-8.8 7.2-16 16-16h56c6 0 11.7 3.4 14.6 8.7L132 76h68c8.8 0 16 7.2 16 16v92c0 8.8-7.2 16-16 16H56c-8.8 0-16-7.2-16-16V76z"
        fill="url(#folderGrad)"/>

  <!-- Subtle inner shade -->
  <path d="M40 104h176v80c0 8.8-7.2 16-16 16H56c-8.8 0-16-7.2-16-16v-80z"
        fill="#0B1220" opacity=".14"/>

  <!-- List lines -->
  <g stroke="#FFFFFF" stroke-linecap="round" opacity=".92">
    <path d="M72 132h112" stroke-width="12"/>
    <path d="M72 160h96" stroke-width="12" opacity=".85"/>
    <path d="M72 188h80" stroke-width="12" opacity=".78"/>
  </g>

  <!-- Star -->
  <path d="M72 90l10-6-4 11 10 6-12 0-4 11-4-11-12 0 10-6-4-11 10 6z"
        fill="url(#starGrad)"/>
</svg>



